<?xml version="1.0" encoding="utf-8"?>
<!-- Generator: Adobe Illustrator 20.0.0, SVG Export Plug-In . SVG Version: 6.00 Build 0)  -->
<svg version="1.1" id="Layer_1" xmlns="http://www.w3.org/2000/svg" xmlns:xlink="http://www.w3.org/1999/xlink" x="0px" y="0px"
	 viewBox="0 0 32 32" style="enable-background:new 0 0 32 32;" xml:space="preserve">
<style type="text/css">
	.st0{fill:#FFFFFF;}
</style>
<g>
	<ellipse transform="matrix(0.7071 -0.7071 0.7071 0.7071 -6.4906 15.9968)" class="st0" cx="16.1" cy="15.8" rx="3.3" ry="3.3"/>
	<path class="st0" d="M28.4,7.4c-0.5-0.5-1.3-0.5-1.8,0c-0.5,0.5-0.5,1.3,0,1.8c1.7,1.7,2.6,4.1,2.6,6.7c0,2.6-1,5-2.6,6.7
		c-0.5,0.5-0.5,1.3,0,1.8c0.3,0.3,0.6,0.4,0.9,0.4c0.3,0,0.7-0.1,0.9-0.4c2.2-2.2,3.4-5.3,3.4-8.5C31.8,12.7,30.5,9.6,28.4,7.4z"/>
	<path class="st0" d="M22.6,26.5c-3.5,3.5-9.8,3.5-13.3,0c-0.5-0.5-1.3-0.5-1.8,0c-0.5,0.5-0.5,1.3,0,1.8c2.3,2.3,5.4,3.4,8.5,3.4
		c3.1,0,6.2-1.1,8.5-3.4c0.5-0.5,0.5-1.3,0-1.8C23.9,26,23.1,26,22.6,26.5z"/>
	<path class="st0" d="M9.4,5.5c3.5-3.5,9.8-3.5,13.3,0c0.3,0.3,0.6,0.4,0.9,0.4c0.3,0,0.7-0.1,0.9-0.4c0.5-0.5,0.5-1.3,0-1.8
		c-4.5-4.5-12.5-4.5-17,0C7.1,4.1,7.1,5,7.6,5.5C8.1,6,8.9,6,9.4,5.5z"/>
	<path class="st0" d="M5.5,7.6C5,7.1,4.1,7.1,3.6,7.6c-2.2,2.2-3.4,5.3-3.4,8.5c0,3.2,1.2,6.3,3.4,8.5C3.9,24.8,4.2,25,4.6,25
		c0.3,0,0.7-0.1,0.9-0.4c0.5-0.5,0.5-1.3,0-1.8c-1.7-1.7-2.6-4.1-2.6-6.7c0-2.6,1-5,2.6-6.7C6,8.9,6,8.1,5.5,7.6z"/>
	<path class="st0" d="M24.6,17.4c-0.4,0-0.7,0.3-0.7,0.7c0,3-2.7,5.6-5.6,5.6c-0.4,0-0.7,0.3-0.7,0.7c0,0.2,0.1,0.4,0.2,0.5
		c0.1,0.1,0.3,0.2,0.5,0.2c3.7,0,7-3.3,7-7C25.2,17.7,24.9,17.4,24.6,17.4z"/>
	<path class="st0" d="M13.8,25.1c0.4,0,0.7-0.3,0.7-0.7c0-0.4-0.3-0.7-0.7-0.7c-3,0-5.6-2.7-5.6-5.6c0-0.4-0.3-0.7-0.7-0.7
		c-0.4,0-0.7,0.3-0.7,0.7c0,1.9,0.8,3.6,2.1,4.9C10.2,24.3,11.9,25.1,13.8,25.1z"/>
	<path class="st0" d="M23.9,13.9c0,0.2,0.1,0.4,0.2,0.5c0.1,0.1,0.3,0.2,0.5,0.2c0.4,0,0.7-0.3,0.7-0.7c0-1.8-0.8-3.6-2.1-4.9
		c-1.3-1.3-3.1-2.1-4.9-2.1c-0.4,0-0.7,0.3-0.7,0.7c0,0.4,0.3,0.7,0.7,0.7C21.2,8.3,23.9,11,23.9,13.9z"/>
	<path class="st0" d="M7.4,14.6c0.4,0,0.7-0.3,0.7-0.7c0-3,2.7-5.6,5.6-5.6c0.4,0,0.7-0.3,0.7-0.7c0-0.4-0.3-0.7-0.7-0.7
		c-3.7,0-7,3.3-7,7c0,0.2,0.1,0.4,0.2,0.5C7.1,14.5,7.3,14.6,7.4,14.6z"/>
	<path class="st0" d="M17.8,21.6c2.1,0,3.9-1.8,3.9-3.9c0-0.2-0.2-0.4-0.4-0.4c-0.2,0-0.4,0.2-0.4,0.4c0,1.6-1.5,3.1-3.1,3.1
		c-0.2,0-0.4,0.2-0.4,0.4c0,0.1,0,0.2,0.1,0.3S17.6,21.6,17.8,21.6z"/>
	<path class="st0" d="M11.5,20.4c0.7,0.7,1.7,1.2,2.7,1.2c0.2,0,0.4-0.2,0.4-0.4c0-0.2-0.2-0.4-0.4-0.4c-0.8,0-1.6-0.3-2.2-0.9
		c-0.6-0.6-0.9-1.4-0.9-2.2c0-0.2-0.2-0.4-0.4-0.4c-0.2,0-0.4,0.2-0.4,0.4C10.3,18.7,10.8,19.7,11.5,20.4z"/>
	<path class="st0" d="M20.5,11.6c-0.7-0.7-1.7-1.2-2.7-1.2c-0.2,0-0.4,0.2-0.4,0.4c0,0.1,0,0.2,0.1,0.3s0.2,0.1,0.3,0.1
		c0.8,0,1.6,0.3,2.2,0.9c0.6,0.6,0.9,1.4,0.9,2.2c0,0.2,0.2,0.4,0.4,0.4c0.2,0,0.4-0.2,0.4-0.4C21.7,13.3,21.2,12.3,20.5,11.6z"/>
	<path class="st0" d="M10.7,14.7c0.2,0,0.4-0.2,0.4-0.4c0-1.6,1.5-3.1,3.1-3.1c0.2,0,0.4-0.2,0.4-0.4c0-0.2-0.2-0.4-0.4-0.4
		c-2.1,0-3.9,1.8-3.9,3.9c0,0.1,0,0.2,0.1,0.3S10.6,14.7,10.7,14.7z"/>
</g>
</svg>
