<?xml version="1.0" encoding="utf-8"?>
<!-- Generator: Adobe Illustrator 20.0.0, SVG Export Plug-In . SVG Version: 6.00 Build 0)  -->
<svg version="1.1" id="Layer_1" xmlns="http://www.w3.org/2000/svg" xmlns:xlink="http://www.w3.org/1999/xlink" x="0px" y="0px"
	 viewBox="0 0 32 32" style="enable-background:new 0 0 32 32;" xml:space="preserve">
<style type="text/css">
	.st0{fill:#FFFFFF;}
</style>
<g>
	<path class="st0" d="M25.3,13H23c0,3-3.5,7-7.3,7c-3.8,0-7.3-4-7.3-7H6.1c0,4,3.9,7.9,7.9,8.6V29h-4v3h11v-3h-4v-7.4
		C22,20.9,25.3,17,25.3,13z"/>
	<path class="st0" d="M15.9,16.5c2.3,0,4-1.8,4-4.1l0-8.2c0-2.3-1.7-4.1-3.9-4.1c-2.3,0-3.9,1.8-3.9,4.1v8.2
		C12,14.7,13.6,16.5,15.9,16.5z"/>
</g>
</svg>
