<svg xmlns="http://www.w3.org/2000/svg" xmlns:xlink="http://www.w3.org/1999/xlink" viewBox="0 0 4365.09 4365.09"><defs><style>.cls-1{opacity:0.2;}.cls-2{fill:url(#radial-gradient);}.cls-3{fill:url(#radial-gradient-2);}.cls-4{fill:url(#radial-gradient-3);}.cls-5{fill:url(#radial-gradient-4);}.cls-6{fill:url(#radial-gradient-5);}.cls-7{fill:url(#radial-gradient-6);}.cls-8{fill:url(#radial-gradient-7);}.cls-9{fill:url(#radial-gradient-8);}.cls-10{fill:url(#radial-gradient-9);}.cls-11{fill:url(#radial-gradient-10);}.cls-12{fill:url(#radial-gradient-11);}.cls-13{fill:url(#radial-gradient-12);}.cls-14{fill:url(#radial-gradient-13);}</style><radialGradient id="radial-gradient" cx="2182.54" cy="2182.54" r="2182.54" gradientUnits="userSpaceOnUse"><stop offset="0" stop-color="#fff"/><stop offset="0.01" stop-color="#fff" stop-opacity="0.98"/><stop offset="0.13" stop-color="#fff" stop-opacity="0.76"/><stop offset="0.25" stop-color="#fff" stop-opacity="0.55"/><stop offset="0.37" stop-color="#fff" stop-opacity="0.38"/><stop offset="0.5" stop-color="#fff" stop-opacity="0.25"/><stop offset="0.62" stop-color="#fff" stop-opacity="0.14"/><stop offset="0.74" stop-color="#fff" stop-opacity="0.06"/><stop offset="0.87" stop-color="#fff" stop-opacity="0.02"/><stop offset="1" stop-color="#fff" stop-opacity="0"/></radialGradient><radialGradient id="radial-gradient-2" cx="3517.69" cy="2172.25" r="677.97" xlink:href="#radial-gradient"/><radialGradient id="radial-gradient-3" cx="2172.21" cy="3517.31" r="678.09" xlink:href="#radial-gradient"/><radialGradient id="radial-gradient-4" cx="2194.21" cy="847.84" r="677.96" xlink:href="#radial-gradient"/><radialGradient id="radial-gradient-5" cx="847.65" cy="2192.91" r="677.97" xlink:href="#radial-gradient"/><radialGradient id="radial-gradient-6" cx="2738.53" cy="2725.74" r="395" xlink:href="#radial-gradient"/><radialGradient id="radial-gradient-7" cx="1628.99" cy="2722.49" r="397.97" xlink:href="#radial-gradient"/><radialGradient id="radial-gradient-8" cx="2735.78" cy="1640.61" r="396.82" xlink:href="#radial-gradient"/><radialGradient id="radial-gradient-9" cx="1624.98" cy="1640.93" r="395.13" xlink:href="#radial-gradient"/><radialGradient id="radial-gradient-10" cx="2544.92" cy="2538.53" r="221.87" xlink:href="#radial-gradient"/><radialGradient id="radial-gradient-11" cx="1820.38" cy="2538.4" r="221.78" xlink:href="#radial-gradient"/><radialGradient id="radial-gradient-12" cx="2545.04" cy="1826.81" r="221.93" xlink:href="#radial-gradient"/><radialGradient id="radial-gradient-13" cx="1820.51" cy="1826.47" r="221.87" xlink:href="#radial-gradient"/></defs><title>loading-screen-animation</title><g id="Layer_2" data-name="Layer 2"><g id="Layer_1-2" data-name="Layer 1"><g class="cls-1"><path class="cls-2" d="M2182.54,0C977.16,0,0,977.16,0,2182.54S977.16,4365.09,2182.54,4365.09c1204.81-1.39,2181.16-977.73,2182.54-2182.54C4365.09,977.16,3387.93,0,2182.54,0Zm0,4143.05c-1082.9,0-1960.7-877.86-1960.7-1960.76S1099.66,221.53,2182.66,221.53v.25c1082,1.25,1959.45,878.38,1960.7,1960.76C4143.23,3265.34,3265.35,4143.05,2182.54,4143.05Z"/><path class="cls-3" d="M3456.28,1296.92A133.12,133.12,0,0,0,3268,1485.19c172.89,172.89,271.94,423.4,271.94,687.27s-99,514.38-271.94,687.27A133.12,133.12,0,0,0,3456.28,3048c222.54-222.54,350.06-541.35,350.06-875.54S3678.57,1519.21,3456.28,1296.92Z"/><path class="cls-4" d="M2859.49,3267.77c-359.89,359.64-1014.91,359.64-1374.55,0A133.12,133.12,0,1,0,1296.67,3456c233.38,233.12,554.46,349.81,875.54,349.81s642.16-116.69,875.54-349.81a133.12,133.12,0,0,0-188.26-188.26Z"/><path class="cls-5" d="M1507.11,1097.32c359.64-359.64,1014.66-359.64,1374.3,0a133.12,133.12,0,0,0,188.26-188.26c-465.49-466.25-1284.58-466.25-1750.82,0a133.12,133.12,0,0,0,188.26,188.26Z"/><path class="cls-6" d="M1097.32,1317.59a133.12,133.12,0,0,0-188.26,0C686.77,1539.88,559,1858.44,559,2192.62s127.78,653.25,350.06,875.54a133,133,0,0,0,188.26-188c-172.89-172.89-271.94-423.4-271.94-687.27s99-514.38,271.94-687A133.12,133.12,0,0,0,1097.32,1317.59Z"/><path class="cls-7" d="M3069,2332a70.06,70.06,0,0,0-74.14,65.74c0,304.45-277.23,581.68-581.68,581.68a70.07,70.07,0,1,0-.25,140.13c384.59,0,721.8-337.21,721.8-721.8A70.06,70.06,0,0,0,3069,2332Z"/><path class="cls-8" d="M1447.89,2902.83a720.29,720.29,0,0,0,504.81,217.5,70.06,70.06,0,1,0,0-139.87c-304.45,0-581.68-277.23-581.68-581.68a70.06,70.06,0,1,0-139.87,0A720.29,720.29,0,0,0,1447.89,2902.83Z"/><path class="cls-9" d="M2994.07,1966.31a69.69,69.69,0,1,0,139.37,1c-9.53-394.46-326.61-712.2-721-722.56a70.06,70.06,0,1,0,0,139.87C2716.84,1384.63,2994.07,1661.86,2994.07,1966.31Z"/><path class="cls-10" d="M1302.45,2037.34a70.06,70.06,0,0,0,68.82-71.29c0-304.45,277.23-581.68,581.68-581.68a70.06,70.06,0,0,0,0-139.87c-384.59,0-721.8,337.21-721.8,721.8a70.09,70.09,0,0,0,71.31,71Z"/><path class="cls-11" d="M2363.5,2760.44c220.41-5.44,397.8-182.83,403.24-403.24a40.58,40.58,0,0,0-81.15,0c-6.6,174.94-146.9,315.24-321.84,321.84a40.7,40.7,0,0,0-.25,81.4Z"/><path class="cls-12" d="M1719.57,2639.22a403.24,403.24,0,0,0,282,121,40.58,40.58,0,0,0,0-81.15c-175.42-5.5-316.33-146.42-321.84-321.84a40.58,40.58,0,0,0-81.15,0A403.24,403.24,0,0,0,1719.57,2639.22Z"/><path class="cls-13" d="M2363.75,1604.9a40.58,40.58,0,1,0,0,81.15c175.61,5.38,316.71,146.48,322.09,322.09a40.58,40.58,0,1,0,81.15,0C2761.55,1787.73,2584.16,1610.34,2363.75,1604.9Z"/><path class="cls-14" d="M1679.5,2007.89c6.49-175.22,147.11-315.74,322.34-322.09a40.58,40.58,0,1,0,0-81.15c-220.41,5.44-397.8,182.83-403.24,403.24a40.45,40.45,0,0,0,80.9,0Z"/></g></g></g></svg>