<svg xmlns="http://www.w3.org/2000/svg" viewBox="0 0 518.65 184.95"><defs><style>.cls-1{fill:#fff;}</style></defs><title>loading-screen-logo</title><g id="Layer_2" data-name="Layer 2"><g id="Layer_1-2" data-name="Layer 1"><path class="cls-1" d="M88.92,38.36a39.73,39.73,0,0,0-15.07,2.86,62.27,62.27,0,0,0-13.74,7.89,28,28,0,0,0-9.41-7.92,28.55,28.55,0,0,0-13.1-2.84,46.56,46.56,0,0,0-15,2.49,63.67,63.67,0,0,0-10.28,4.54A5.66,5.66,0,0,0,10.89,42a6.28,6.28,0,0,0-4.77-1.63A5.47,5.47,0,0,0,0,46.3v85.54a6,6,0,0,0,1.53,4.29,6.28,6.28,0,0,0,4.77,1.63,5.47,5.47,0,0,0,6.1-5.91V65.08s-.27-9.41,10.5-13a41.48,41.48,0,0,1,13.16-2.69,19.48,19.48,0,0,1,9.26,1.91,12.92,12.92,0,0,1,5.38,5.24,23.8,23.8,0,0,1,2.49,8.06,72.58,72.58,0,0,1,.67,10.21v57.06a6,6,0,0,0,1.53,4.29,6.28,6.28,0,0,0,4.77,1.63,6,6,0,0,0,4.68-1.63,6.25,6.25,0,0,0,1.42-4.29V70.42A42.37,42.37,0,0,0,66,65.36q-.28-2.38-.67-4.49a29.57,29.57,0,0,1,10.11-8.2,28,28,0,0,1,13-3.24q9.92,0,14.6,6.2a24.49,24.49,0,0,1,4.68,15.17v61.06a5.79,5.79,0,0,0,1.63,4.29,6.33,6.33,0,0,0,4.68,1.63,6,6,0,0,0,4.68-1.63,6.25,6.25,0,0,0,1.42-4.29V70.42q0-14.31-7.92-23.19T88.92,38.36Z"/><path class="cls-1" d="M510.7,47.23q-7.93-8.87-23.19-8.87a39.73,39.73,0,0,0-15.08,2.86,62.27,62.27,0,0,0-13.74,7.89,28,28,0,0,0-9.41-7.92,28.55,28.55,0,0,0-13.14-2.84,46.56,46.56,0,0,0-15,2.49,63.67,63.67,0,0,0-10.28,4.54A5.66,5.66,0,0,0,409.44,42a6.28,6.28,0,0,0-4.77-1.63,5.47,5.47,0,0,0-6.1,5.91v85.54a6,6,0,0,0,1.53,4.29,6.28,6.28,0,0,0,4.77,1.63,5.47,5.47,0,0,0,6.1-5.91V65.08s-.27-9.41,10.5-13a41.48,41.48,0,0,1,13.17-2.69,19.48,19.48,0,0,1,9.26,1.91,12.92,12.92,0,0,1,5.38,5.24,23.8,23.8,0,0,1,2.49,8.06,72.57,72.57,0,0,1,.67,10.21v57.06a6,6,0,0,0,1.53,4.29,6.28,6.28,0,0,0,4.77,1.63,6,6,0,0,0,4.68-1.63,6.25,6.25,0,0,0,1.42-4.29V70.42a42.36,42.36,0,0,0-.28-5.05q-.28-2.38-.67-4.49A29.57,29.57,0,0,1,474,52.67a28,28,0,0,1,13-3.24q9.92,0,14.6,6.2a24.49,24.49,0,0,1,4.68,15.17v61.06a5.79,5.79,0,0,0,1.63,4.29,6.33,6.33,0,0,0,4.68,1.63,6,6,0,0,0,4.68-1.63,6.25,6.25,0,0,0,1.42-4.29V70.42Q518.61,56.1,510.7,47.23Z"/><path class="cls-1" d="M202.75,38.94a6,6,0,0,0-3.59,1.24,11.76,11.76,0,0,0-2.69,2.69v.08c-1.72,5.38-18.36,57.27-23.71,73.92a1.9,1.9,0,0,1-3.51,0L142.37,42.8a7.37,7.37,0,0,0-2.54-2.86,6.32,6.32,0,0,0-3.59-1.14,8,8,0,0,0-5,1.53,5,5,0,0,0-2,4.19,6.72,6.72,0,0,0,.11,1c.07.44,35.16,91.76,35.16,91.76a.3.3,0,0,1,0,.22c-1.81,5.08-13.71,39.25-13.71,39.25h0l-.07.17a6.51,6.51,0,0,0,.13,3.67,5.38,5.38,0,0,0,2.12,2.86,8.06,8.06,0,0,0,5,1.45,5.91,5.91,0,0,0,4.4-2.28,7.41,7.41,0,0,0,.6-.9C163.26,181.37,209.37,47,209.37,47a.26.26,0,0,0,0-.08,2.75,2.75,0,0,1,.11-.73,4.7,4.7,0,0,0,.11-1.14,5.6,5.6,0,0,0-2.11-4.58A7.22,7.22,0,0,0,202.75,38.94Z"/><path class="cls-1" d="M287,73.86a40.47,40.47,0,0,0-11.16-6.72q-6.32-2.45-12.35-4.58-4-1.34-8.06-3t-7.24-3.15q-1.72-1-3.91-2.38a16.13,16.13,0,0,1-4-3.82,21.38,21.38,0,0,1-3.05-5.91,26.34,26.34,0,0,1-1.24-8.68A25.78,25.78,0,0,1,238.1,24.3a19.14,19.14,0,0,1,5.85-7.12,23.05,23.05,0,0,1,8.31-3.82,40.32,40.32,0,0,1,9.64-1.14A36.06,36.06,0,0,1,272,13.45,78.36,78.36,0,0,1,279.44,16a17,17,0,0,0,3.33,1.24,13.12,13.12,0,0,0,3.33.48,5.89,5.89,0,0,0,6.28-5.47q0-.22,0-.44a6.81,6.81,0,0,0-3.63-5.91,31.1,31.1,0,0,0-8.68-3.63A62.69,62.69,0,0,0,269.59.48Q264.21,0,260.72,0q-17.74,0-28,9.64t-10.21,27a35.56,35.56,0,0,0,3.05,15.74,29.27,29.27,0,0,0,8.06,10.21,44.7,44.7,0,0,0,11.26,6.49q6.2,2.49,12.5,4.58,4.19,1.53,8.2,3.05a75.36,75.36,0,0,1,7.06,3.05,25.15,25.15,0,0,1,4,2.58,18.32,18.32,0,0,1,3.82,4.1,23,23,0,0,1,2.86,6,27,27,0,0,1,1.14,8.31q0,12-6.87,18.7t-20.6,6.72a44.35,44.35,0,0,1-12.78-1.63q-5.38-1.61-9.15-3.15-2.1-.77-4.1-1.42a10.65,10.65,0,0,0-3-.67,5.26,5.26,0,0,0-4,1.91,6.37,6.37,0,0,0-1.72,4.4q0,3.43,3.72,5.91a32.14,32.14,0,0,0,9.06,4,69.19,69.19,0,0,0,11.26,2.19,95,95,0,0,0,10.5.67,51.07,51.07,0,0,0,16.41-2.58,36.29,36.29,0,0,0,13.06-7.54,35.28,35.28,0,0,0,8.59-12.22,41.3,41.3,0,0,0,3.15-16.6A31.25,31.25,0,0,0,287,73.86Z"/><path class="cls-1" d="M381.74,127.07a2.16,2.16,0,0,0-.67.09,2.81,2.81,0,0,1-.86.09q-5.15,0-5.15-7.45V76.72q0-18.7-7.63-28.52t-25.17-9.84a68.78,68.78,0,0,0-9.54.67,45.08,45.08,0,0,0-8.59,2,17.47,17.47,0,0,0-6.1,3.44,5.67,5.67,0,0,0-1.91,5.15A8.28,8.28,0,0,0,317.25,53a3.27,3.27,0,0,0,3.05,1.63,6.2,6.2,0,0,0,2.58-.47,19.72,19.72,0,0,0,2-1,26.64,26.64,0,0,1,6.72-3.15,30.73,30.73,0,0,1,8.78-1q22.32,0,22.32,22.7v1.72A9.09,9.09,0,0,1,352,82.2h-.11a58.7,58.7,0,0,0-10.31-1q-33.2,0-33.2,27.86v.77q0,12.59,7.06,20.32t21.51,7.73a37.06,37.06,0,0,0,20.52-6.09,9.07,9.07,0,0,1,11.36,1,21.15,21.15,0,0,0,1.8,1.6,12.74,12.74,0,0,0,8.06,3,10.93,10.93,0,0,0,5-1.14,4.1,4.1,0,0,0,2.28-4,6.4,6.4,0,0,0-1-3.53A3.51,3.51,0,0,0,381.74,127.07Zm-19.09-13.56a9,9,0,0,1-3.76,7.35,37.32,37.32,0,0,1-7.31,4.11,31.65,31.65,0,0,1-12.2,2.28q-10.87,0-14.88-4.87a18.72,18.72,0,0,1-4-12.31v-.77a29.89,29.89,0,0,1,.77-6.87,12.53,12.53,0,0,1,3.05-5.73,15.48,15.48,0,0,1,6.29-3.91,32.58,32.58,0,0,1,10.75-1.42,67.2,67.2,0,0,1,10,.86q2.06.31,4.13.77a9.13,9.13,0,0,1,7.22,8.88v11.61Z"/></g></g></svg>