<svg xmlns="http://www.w3.org/2000/svg" xmlns:xlink="http://www.w3.org/1999/xlink" viewBox="0 0 2580 1800"><defs><style>.cls-1{isolation:isolate;}.cls-2{fill:url(#linear-gradient);}.cls-3{opacity:0.03;}.cls-4{fill:url(#linear-gradient-2);}.cls-5{fill:#35334a;}.cls-6{fill:url(#linear-gradient-3);}.cls-7{fill:url(#linear-gradient-4);}.cls-8{fill:url(#linear-gradient-5);}.cls-9{fill:url(#linear-gradient-6);}.cls-10{fill:url(#linear-gradient-7);}.cls-11{fill:url(#linear-gradient-8);}.cls-12{fill:url(#linear-gradient-9);}.cls-13{fill:url(#linear-gradient-10);}.cls-14{fill:url(#linear-gradient-11);}.cls-15{fill:url(#linear-gradient-12);}.cls-16{fill:url(#linear-gradient-13);}.cls-17{fill:url(#linear-gradient-14);}.cls-18{fill:url(#linear-gradient-15);}.cls-19{fill:url(#linear-gradient-16);}.cls-20{fill:url(#linear-gradient-17);}.cls-21{fill:url(#linear-gradient-18);}.cls-22{fill:url(#linear-gradient-19);}.cls-23{fill:url(#linear-gradient-20);}.cls-24{fill:url(#linear-gradient-21);}.cls-25{fill:url(#linear-gradient-22);}.cls-26{fill:url(#linear-gradient-23);}.cls-27{fill:url(#linear-gradient-24);}.cls-28{fill:url(#linear-gradient-25);}.cls-29{fill:url(#linear-gradient-26);}.cls-30{fill:url(#linear-gradient-27);}.cls-31{fill:url(#linear-gradient-28);}.cls-32{fill:url(#linear-gradient-29);}.cls-33{fill:url(#linear-gradient-30);}.cls-34{fill:url(#linear-gradient-31);}.cls-35{fill:url(#linear-gradient-32);}.cls-36{fill:url(#linear-gradient-33);}.cls-37{fill:url(#linear-gradient-34);}.cls-38{fill:url(#linear-gradient-35);}.cls-39{fill:url(#linear-gradient-36);}.cls-40{fill:url(#linear-gradient-37);}.cls-41{fill:url(#linear-gradient-38);}.cls-42{fill:url(#linear-gradient-39);}.cls-43{fill:url(#linear-gradient-40);}.cls-44{fill:url(#linear-gradient-41);}.cls-45{fill:url(#linear-gradient-42);}.cls-46{fill:url(#linear-gradient-43);}.cls-47{fill:url(#linear-gradient-44);}.cls-48{fill:url(#linear-gradient-45);}.cls-49{fill:url(#linear-gradient-46);}.cls-50{fill:url(#linear-gradient-47);}.cls-51{fill:url(#linear-gradient-48);}.cls-52{fill:url(#linear-gradient-49);}.cls-53{fill:url(#linear-gradient-50);}.cls-54{opacity:0.6;mix-blend-mode:overlay;}.cls-55{fill:#fff;}</style><linearGradient id="linear-gradient" x1="-4.96" y1="4.4" x2="2564.8" y2="1786.14" gradientUnits="userSpaceOnUse"><stop offset="0" stop-color="#e9485e"/><stop offset="0.11" stop-color="#c1435a"/><stop offset="0.26" stop-color="#973e55"/><stop offset="0.4" stop-color="#733a51"/><stop offset="0.55" stop-color="#58374e"/><stop offset="0.7" stop-color="#45354c"/><stop offset="0.85" stop-color="#39334a"/><stop offset="1" stop-color="#35334a"/></linearGradient><linearGradient id="linear-gradient-2" x1="2" y1="841.61" x2="536.48" y2="841.61" gradientUnits="userSpaceOnUse"><stop offset="0" stop-color="#f2d1df"/><stop offset="1" stop-color="#e9485e"/></linearGradient><linearGradient id="linear-gradient-3" x1="537.98" y1="971.95" x2="1049.09" y2="971.95" gradientUnits="userSpaceOnUse"><stop offset="0" stop-color="#fff"/><stop offset="0.08" stop-color="#e6e6e8"/><stop offset="0.25" stop-color="#b1b0b9"/><stop offset="0.42" stop-color="#848391"/><stop offset="0.59" stop-color="#626072"/><stop offset="0.74" stop-color="#49475c"/><stop offset="0.89" stop-color="#3a384f"/><stop offset="1" stop-color="#35334a"/></linearGradient><linearGradient id="linear-gradient-4" x1="1693" y1="1194" x2="2137.05" y2="1194" gradientUnits="userSpaceOnUse"><stop offset="0" stop-color="#e9485e"/><stop offset="0.22" stop-color="#c6445a"/><stop offset="0.71" stop-color="#6d3a50"/><stop offset="1" stop-color="#35334a"/></linearGradient><linearGradient id="linear-gradient-5" x1="1793.32" y1="393.3" x2="2337" y2="393.3" xlink:href="#linear-gradient-4"/><linearGradient id="linear-gradient-6" x1="153.03" y1="401.21" x2="555.51" y2="401.21" xlink:href="#linear-gradient-2"/><linearGradient id="linear-gradient-7" x1="1793.32" y1="499.78" x2="2139.69" y2="499.78" gradientUnits="userSpaceOnUse"><stop offset="0" stop-color="#19162b"/><stop offset="1" stop-color="#35334a"/></linearGradient><linearGradient id="linear-gradient-8" x1="1819" y1="811.69" x2="2337" y2="811.69" xlink:href="#linear-gradient-2"/><linearGradient id="linear-gradient-9" x1="811" y1="971.95" x2="1265.13" y2="971.95" xlink:href="#linear-gradient-2"/><linearGradient id="linear-gradient-10" x1="811" y1="1274.77" x2="1693" y2="1274.77" xlink:href="#linear-gradient-7"/><linearGradient id="linear-gradient-11" x1="1265.13" x2="1819" xlink:href="#linear-gradient-4"/><linearGradient id="linear-gradient-12" x1="4" y1="540.12" x2="406.5" y2="540.12" xlink:href="#linear-gradient-3"/><linearGradient id="linear-gradient-13" x1="1076.19" y1="830.74" x2="1819" y2="830.74" xlink:href="#linear-gradient-2"/><linearGradient id="linear-gradient-14" x1="-3.67" y1="462.21" x2="154.95" y2="462.21" xlink:href="#linear-gradient-4"/><linearGradient id="linear-gradient-15" x1="414.99" y1="1110.42" x2="811" y2="1110.42" xlink:href="#linear-gradient-2"/><linearGradient id="linear-gradient-16" x1="411" y1="1321.63" x2="811" y2="1321.63" xlink:href="#linear-gradient-7"/><linearGradient id="linear-gradient-17" x1="858.98" y1="568.65" x2="1819" y2="568.65" xlink:href="#linear-gradient-3"/><linearGradient id="linear-gradient-18" x1="406.5" y1="507.26" x2="859.61" y2="507.26" xlink:href="#linear-gradient-4"/><linearGradient id="linear-gradient-19" x1="406.5" y1="797.97" x2="859" y2="797.97" xlink:href="#linear-gradient-3"/><linearGradient id="linear-gradient-20" x1="234.9" y1="254.94" x2="639.73" y2="254.94" xlink:href="#linear-gradient-2"/><linearGradient id="linear-gradient-21" x1="537.98" y1="797.97" x2="1049.09" y2="797.97" xlink:href="#linear-gradient-2"/><linearGradient id="linear-gradient-22" x1="859" y1="796.77" x2="1265.13" y2="796.77" xlink:href="#linear-gradient-7"/><linearGradient id="linear-gradient-23" x1="1249.13" y1="1598.57" x2="2051.99" y2="1598.57" xlink:href="#linear-gradient-3"/><linearGradient id="linear-gradient-24" y1="1015.28" x2="404.19" y2="1015.28" xlink:href="#linear-gradient-2"/><linearGradient id="linear-gradient-25" x1="2" y1="1504.12" x2="334" y2="1504.12" xlink:href="#linear-gradient-7"/><linearGradient id="linear-gradient-26" x1="2" y1="1495.25" x2="572.43" y2="1495.25" xlink:href="#linear-gradient-4"/><linearGradient id="linear-gradient-27" x1="334" y1="1643.13" x2="752.66" y2="1643.13" xlink:href="#linear-gradient-2"/><linearGradient id="linear-gradient-28" x1="7.95" y1="77.57" x2="443.87" y2="77.57" xlink:href="#linear-gradient-3"/><linearGradient id="linear-gradient-29" x1="2" y1="983.53" x2="536.98" y2="983.53" xlink:href="#linear-gradient-7"/><linearGradient id="linear-gradient-30" x1="2" y1="178.88" x2="234.4" y2="178.88" xlink:href="#linear-gradient-7"/><linearGradient id="linear-gradient-31" x1="2379.27" y1="1315.23" x2="2582" y2="1315.23" xlink:href="#linear-gradient-4"/><linearGradient id="linear-gradient-32" x1="2051.99" y1="1540.03" x2="2582" y2="1540.03" xlink:href="#linear-gradient-2"/><linearGradient id="linear-gradient-33" x1="572.68" y1="1483.25" x2="811" y2="1483.25" xlink:href="#linear-gradient-3"/><linearGradient id="linear-gradient-34" x1="390.17" y1="47.96" x2="756" y2="47.96" xlink:href="#linear-gradient-7"/><linearGradient id="linear-gradient-35" x1="1823.06" y1="1598.2" x2="2304.6" y2="1598.2" xlink:href="#linear-gradient-4"/><linearGradient id="linear-gradient-36" x1="792.85" y1="1483.5" x2="1100.41" y2="1483.5" xlink:href="#linear-gradient-4"/><linearGradient id="linear-gradient-37" x1="811" y1="1483" x2="1693" y2="1483" xlink:href="#linear-gradient-2"/><linearGradient id="linear-gradient-38" x1="1152.26" y1="435.5" x2="1819" y2="435.5" xlink:href="#linear-gradient-4"/><linearGradient id="linear-gradient-39" x1="2336" y1="264" x2="2582" y2="264" xlink:href="#linear-gradient-7"/><linearGradient id="linear-gradient-40" x1="1951.52" y1="264" x2="2577.17" y2="264" xlink:href="#linear-gradient-3"/><linearGradient id="linear-gradient-41" x1="2335" y1="460.3" x2="2582" y2="460.3" xlink:href="#linear-gradient-4"/><linearGradient id="linear-gradient-42" x1="1693" y1="1309.69" x2="2381.27" y2="1309.69" xlink:href="#linear-gradient-7"/><linearGradient id="linear-gradient-43" x1="1836.15" y1="139.6" x2="2451.25" y2="139.6" xlink:href="#linear-gradient-4"/><linearGradient id="linear-gradient-44" x1="2140.92" y1="809.38" x2="2582" y2="809.38" xlink:href="#linear-gradient-7"/><linearGradient id="linear-gradient-45" x1="443.87" y1="209.97" x2="756" y2="209.97" xlink:href="#linear-gradient-4"/><linearGradient id="linear-gradient-46" x1="2137.05" y1="976.53" x2="2582" y2="976.53" xlink:href="#linear-gradient-3"/><linearGradient id="linear-gradient-47" x1="853.48" y1="137.15" x2="1423.08" y2="137.15" xlink:href="#linear-gradient-3"/><linearGradient id="linear-gradient-48" x1="758.95" y1="284.19" x2="1152.26" y2="284.19" xlink:href="#linear-gradient-2"/><linearGradient id="linear-gradient-49" x1="1612.45" y1="263.53" x2="2336.34" y2="263.53" xlink:href="#linear-gradient-2"/><linearGradient id="linear-gradient-50" x1="1529.39" y1="435.56" x2="1821.37" y2="435.56" xlink:href="#linear-gradient-3"/></defs><title>loading-screen-2</title><g class="cls-1"><g id="Layer_1" data-name="Layer 1"><rect class="cls-2" x="-2" y="0.13" width="2582" height="1802.87"/><g class="cls-3"><path class="cls-4" d="M405.5,651.29C250.78,680,93,708.81,2,725.46v52.09l534.48,254.39h0Z"/><polygon class="cls-5" points="406.19 1189.5 411 1194 414.99 1188.9 406.19 1189.5"/><polygon class="cls-6" points="1049.09 781.9 543.33 1029.32 537.98 1031.94 811 1162 1049.09 781.9 1049.09 781.9"/><polygon class="cls-7" points="1819 868 1693 1520 2137.05 1099.38 1819 868"/><polygon class="cls-8" points="2337 524 1793.32 131.56 2139.69 655.03 2337 524"/><polygon class="cls-9" points="555.51 363.23 234.9 151.13 153.03 354.77 406.5 651.29 555.51 363.23"/><path class="cls-10" d="M1793.32,131.56h0S1831,860,1819,868l320.69-213Z"/><polygon class="cls-11" points="2141.92 1094.77 2337 524 2139.69 655.03 2139.69 655.03 2139.69 655.03 1819 868 2137.05 1099.38 2141.92 1094.77"/><polygon class="cls-12" points="1049.09 781.9 811 1162 1265.13 1029.54 1049.09 781.9"/><polygon class="cls-13" points="811 1162 1275.78 1350.65 1275.78 1350.65 1275.78 1350.65 1693 1520 1265.13 1029.54 811 1162"/><polygon class="cls-14" points="1265.13 1029.54 1265.13 1029.54 1265.13 1029.54 1265.13 1029.54 1693 1520 1819 868 1265.13 1029.54"/><path class="cls-15" d="M406.5,651.29,153,354.77,4,725.46H4C94.95,708.81,251.78,680,406.5,651.29Z"/><path class="cls-16" d="M1076.19,631.94s184,392,188.94,397.61L1819,868s-459.61-146.46-742.81-236.06Z"/><polygon class="cls-17" points="3 180.42 -3.67 744 154.95 354.77 3 180.42"/><path class="cls-5" d="M859,564l0-.12C858.95,564,859,564,859,564Z"/><polygon class="cls-18" points="414.99 1188.9 811 1162 537.98 1031.94 414.99 1188.9"/><polygon class="cls-19" points="411 1194 572.68 1481.25 811 1162 414.99 1188.9 411 1194"/><path class="cls-20" d="M1659.72,725l-583.53-93C1359.39,721.54,1819,868,1819,868L1152.26,269.29C1002.41,418.06,860.93,559.25,859,563.88l0,.12c1.84,0,92.38,28.45,217.19,67.94Z"/><path class="cls-21" d="M406.5,651.29h0c225.08-41.78,446.32-82.77,453.12-86.66L640.5,419.44l-84.35-56.21Z"/><path class="cls-22" d="M538,1031.94,859,564c-6.8,3.89-227.42,45.51-452.5,87.29Z"/><polygon class="cls-23" points="555.51 363.23 555.51 363.23 639.73 418.94 443.87 90.93 234.9 151.13 234.9 151.13 555.51 363.23 555.51 363.23"/><polygon class="cls-24" points="1049.09 781.9 859 564 537.98 1031.94 1049.09 781.9"/><path class="cls-25" d="M1049.09,781.9h0l216,247.65h0c-4.91-5.63-188.94-397.61-188.94-397.61h0C951.38,592.45,860.84,564,859,564l190.09,217.9Z"/><path class="cls-26" d="M1693,1520l-210.33,133.15L1819,1794l-336.33-139.85L1249.13,1803h573.94L2052,1394.14C1857.5,1462.8,1693,1520,1693,1520Z"/><polygon class="cls-27" points="2 813.73 2 1216.83 404.19 1189.5 2 813.73"/><polygon class="cls-28" points="2 1725.11 2 1803 334 1803 188.15 1205.25 2 1725.11"/><polygon class="cls-29" points="411 1194 405.19 1189.5 2 1216.83 2 1725.11 188.15 1204.25 333.5 1801 333.5 1801 572.43 1481.25 411 1194"/><polygon class="cls-30" points="334 1803 752.66 1803 572.68 1483.25 334 1803"/><polygon class="cls-31" points="234.9 152.13 443.87 92.43 390.17 3 7.95 3 234.9 152.13 234.9 152.13"/><polygon class="cls-32" points="414.99 1188.9 536.98 1031.94 2 777.55 2 813.73 405.19 1189.5 414.99 1188.9"/><polygon class="cls-33" points="2 180.42 152.03 354.77 234.4 152.13 7.95 3 2 3 2 180.42"/><path class="cls-34" d="M2379.27,1277.05,2582,1424.54V1205.92C2530,1224.28,2458.38,1249.22,2379.27,1277.05Z"/><path class="cls-35" d="M2052,1393.14,2304.6,1801l76.67-522.95L2304.6,1803H2582V1424.54l-201.73-147.48C2276.67,1313.51,2160.19,1354.94,2052,1393.14Z"/><path class="cls-36" d="M572.68,1482.25l180,320.75h40.19c5-178,18.15-639.5,18.15-639.5Z"/><polygon class="cls-37" points="756 3 390.17 3 443.87 92.93 756 3"/><polygon class="cls-38" points="2050 1393.39 2050 1393.52 1823.06 1803 2304.6 1803 2304.36 1803 2050 1393.39"/><path class="cls-39" d="M792.85,1803h307.55L811,1164S797.81,1625,792.85,1803Z"/><path class="cls-40" d="M1275.78,1350.66,811,1163l289.41,640h148.72l233.54-148.85h0L1693,1520.5l-417.22-169.6s1.22,417.22,0,433.35c1.22-16.13,0-433.53,0-433.53h0"/><path class="cls-41" d="M1819,868,1659.72,391.16,1152.26,269.29l507.46,122.87L1529.39,3H1423.08c-68.47,67-171.48,168.67-270.82,267.29Z"/><polygon class="cls-42" points="2582 343.4 2582 3 2577.17 3 2336 525 2582 343.4"/><path class="cls-43" d="M1951.52,121.58C2127.15,305.06,2337,525,2337,525L2577.17,3H2405.91l45.34,273.2Z"/><polygon class="cls-44" points="2582 577.2 2582 343.4 2335 524 2582 577.2"/><path class="cls-45" d="M1693,1520s164.5-58.2,359-126.86h0c108.2-38.2,225.68-79.63,329.28-116.09l-244.22-177.67Z"/><path class="cls-46" d="M2451.25,276.2,2405.91,3H1836.15c34.42,35,73.95,76.8,115.38,120.08Z"/><polygon class="cls-47" points="2140.92 1094.77 2582 676.02 2582 577.2 2335.5 524 2140.92 1094.77"/><polygon class="cls-48" points="639.73 418.94 639.73 418.94 756 1 443.87 90.93 639.73 418.94"/><path class="cls-49" d="M2139.69,1101.3l2.23-6.53-4.87,4.61,243.22,177.67c79.11-27.84,149.73-52.77,201.73-71.14V676l-441.08,418.75Z"/><path class="cls-50" d="M1423.08,3H853.48l298.78,268.29C1251.6,172.67,1354.61,70,1423.08,3Z"/><path class="cls-51" d="M1152.26,270.29,853.48,3H758.95L859,565.38C860.93,560.75,1002.41,419.06,1152.26,270.29Z"/><path class="cls-52" d="M1792,131.81v-.12l544.34,392.38s-209.52-218-385.15-401.45h0C1909.76,79.33,1870.56,38,1836.15,3h-223.7L1792,131.81Z"/><path class="cls-5" d="M859,564a3.34,3.34,0,0,0,0,.88L758.95,3H756L639.73,419.94Z"/><path class="cls-53" d="M1659.72,392.16h0l133.6-251.66-133.6,250.91h0L1819,868.13c12-8-25.68-735.5-25.68-735.5L1612.45,3h-83.06Z"/></g><g class="cls-54"><circle class="cls-55" cx="235.14" cy="151.13" r="1.87"/><circle class="cls-55" cx="406.5" cy="651.29" r="1.87"/><circle class="cls-55" cx="537.23" cy="1033.8" r="1.87"/><circle class="cls-55" cx="574.55" cy="1481.75" r="1.87"/><circle class="cls-55" cx="188.65" cy="1206.12" r="1.87"/><circle class="cls-55" cx="411" cy="1192.13" r="1.87"/><circle class="cls-55" cx="4" cy="727.33" r="1.87"/><circle class="cls-55" cx="639.73" cy="420.81" r="1.87"/><circle class="cls-55" cx="1076.19" cy="630.07" r="1.87"/><circle class="cls-55" cx="859.61" cy="562.76" r="1.87"/><circle class="cls-55" cx="1050.96" cy="781.9" r="1.87"/><circle class="cls-55" cx="811" cy="1160.64" r="1.87"/><circle class="cls-55" cx="1265.13" cy="1027.68" r="1.87"/><circle class="cls-55" cx="2378.9" cy="1277.05" r="1.87"/><circle class="cls-55" cx="1694.87" cy="1520" r="1.87"/><circle class="cls-55" cx="443.87" cy="91.93" r="1.87"/><circle class="cls-55" cx="153.03" cy="354.77" r="1.87"/><circle class="cls-55" cx="758.95" cy="2" r="1.87"/><circle class="cls-55" cx="1152.26" cy="270.29" r="1.87"/><circle class="cls-55" cx="2137.05" cy="651.29" r="1.87"/><circle class="cls-55" cx="2336" cy="515.61" r="1.87"/><circle class="cls-55" cx="2137.05" cy="1097.51" r="1.87"/><circle class="cls-55" cx="1791.45" cy="132.09" r="1.87"/><circle class="cls-55" cx="1949.66" cy="119.63" r="1.87"/><circle class="cls-55" cx="2451.25" cy="273.83" r="1.87"/><circle class="cls-55" cx="1819" cy="866.19" r="1.87"/><circle class="cls-55" cx="3" cy="2" r="1.87"/></g></g></g></svg>