<svg xmlns="http://www.w3.org/2000/svg" viewBox="0 0 399.53 117.34"><defs><style>.cls-1{fill:#35344a;}.cls-2{fill:#ea495e;}</style></defs><title>mysam-logo</title><g id="Layer_2" data-name="Layer 2"><g id="Layer_1-2" data-name="Layer 1"><path class="cls-1" d="M182.92,33.6A20,20,0,0,0,175.32,35a31.39,31.39,0,0,0-6.92,4,14.11,14.11,0,0,0-4.74-4,14.39,14.39,0,0,0-6.61-1.43,23.47,23.47,0,0,0-7.55,1.25,32.09,32.09,0,0,0-5.18,2.29,2.85,2.85,0,0,0-.73-1.7,3.16,3.16,0,0,0-2.41-.82,2.76,2.76,0,0,0-3.08,3V80.72a3,3,0,0,0,.77,2.16,3.16,3.16,0,0,0,2.41.82,2.76,2.76,0,0,0,3.08-3V47.07s-.14-4.74,5.29-6.54a20.91,20.91,0,0,1,6.63-1.36,9.82,9.82,0,0,1,4.67,1,6.51,6.51,0,0,1,2.71,2.64,12,12,0,0,1,1.25,4.07,36.59,36.59,0,0,1,.34,5.15V80.76a3,3,0,0,0,.77,2.16,3.16,3.16,0,0,0,2.41.82,3,3,0,0,0,2.36-.82,3.15,3.15,0,0,0,.72-2.16v-31a21.36,21.36,0,0,0-.14-2.55Q171.23,46,171,45a14.9,14.9,0,0,1,5.09-4.13,14.12,14.12,0,0,1,6.54-1.63q5,0,7.36,3.12A12.34,12.34,0,0,1,192.38,50V80.74a2.92,2.92,0,0,0,.82,2.16,3.19,3.19,0,0,0,2.36.82,3,3,0,0,0,2.36-.82,3.15,3.15,0,0,0,.72-2.16v-31q0-7.22-4-11.69T182.92,33.6Z"/><path class="cls-1" d="M395.53,38.08q-4-4.47-11.69-4.47a20,20,0,0,0-7.6,1.44,31.39,31.39,0,0,0-6.92,4,14.11,14.11,0,0,0-4.74-4,14.39,14.39,0,0,0-6.63-1.43,23.47,23.47,0,0,0-7.55,1.25,32.09,32.09,0,0,0-5.18,2.29,2.85,2.85,0,0,0-.73-1.7,3.16,3.16,0,0,0-2.41-.82,2.76,2.76,0,0,0-3.08,3V80.72a3,3,0,0,0,.77,2.16,3.16,3.16,0,0,0,2.41.82,2.76,2.76,0,0,0,3.08-3V47.07s-.14-4.74,5.29-6.54a20.91,20.91,0,0,1,6.64-1.36,9.82,9.82,0,0,1,4.67,1,6.51,6.51,0,0,1,2.71,2.64,12,12,0,0,1,1.25,4.07,36.58,36.58,0,0,1,.34,5.15V80.76a3,3,0,0,0,.77,2.16,3.16,3.16,0,0,0,2.41.82,3,3,0,0,0,2.36-.82,3.15,3.15,0,0,0,.72-2.16v-31a21.35,21.35,0,0,0-.14-2.55q-.14-1.2-.34-2.26A14.91,14.91,0,0,1,377,40.82a14.12,14.12,0,0,1,6.54-1.63q5,0,7.36,3.12A12.34,12.34,0,0,1,393.28,50V80.74a2.92,2.92,0,0,0,.82,2.16,3.19,3.19,0,0,0,2.36.82,3,3,0,0,0,2.36-.82,3.15,3.15,0,0,0,.72-2.16v-31Q399.52,42.55,395.53,38.08Z"/><path class="cls-1" d="M240.3,33.9a3,3,0,0,0-1.81.62,5.93,5.93,0,0,0-1.36,1.36v0c-.87,2.71-9.25,28.87-12,37.26a1,1,0,0,1-1.77,0L209.86,35.84a3.71,3.71,0,0,0-1.28-1.44,3.18,3.18,0,0,0-1.81-.58,4,4,0,0,0-2.51.77,2.51,2.51,0,0,0-1,2.11,3.39,3.39,0,0,0,.05.53c0,.22,17.72,46.25,17.72,46.25a.15.15,0,0,1,0,.11c-.91,2.56-6.91,19.78-6.91,19.78h0l0,.09a3.28,3.28,0,0,0,.07,1.85,2.71,2.71,0,0,0,1.07,1.44,4.06,4.06,0,0,0,2.52.73,3,3,0,0,0,2.22-1.15,3.73,3.73,0,0,0,.3-.45c.12-.2,23.37-67.91,23.37-67.91a.13.13,0,0,0,0,0,1.39,1.39,0,0,1,.05-.37,2.37,2.37,0,0,0,.05-.58,2.83,2.83,0,0,0-1.06-2.31A3.64,3.64,0,0,0,240.3,33.9Z"/><path class="cls-1" d="M282.74,51.5a20.4,20.4,0,0,0-5.62-3.39q-3.18-1.23-6.23-2.31-2-.68-4.07-1.49t-3.65-1.59q-.87-.48-2-1.2a8.13,8.13,0,0,1-2-1.92,10.78,10.78,0,0,1-1.54-3,13.28,13.28,0,0,1-.62-4.38,13,13,0,0,1,1.1-5.72,9.65,9.65,0,0,1,2.95-3.59A11.62,11.62,0,0,1,265.25,21a20.33,20.33,0,0,1,4.86-.58,18.18,18.18,0,0,1,5.09.62,39.5,39.5,0,0,1,3.75,1.3,8.57,8.57,0,0,0,1.68.62,6.61,6.61,0,0,0,1.68.24,3,3,0,0,0,3.16-2.76q0-.11,0-.22a3.43,3.43,0,0,0-1.83-3,15.68,15.68,0,0,0-4.38-1.83,31.6,31.6,0,0,0-5.29-.91q-2.71-.24-4.47-.24-8.94,0-14.09,4.86t-5.15,13.61a17.93,17.93,0,0,0,1.54,7.93,14.76,14.76,0,0,0,4.07,5.15,22.53,22.53,0,0,0,5.68,3.27q3.12,1.25,6.3,2.31L272,52.94a38,38,0,0,1,3.56,1.54,12.68,12.68,0,0,1,2,1.3,9.23,9.23,0,0,1,1.92,2.07,11.59,11.59,0,0,1,1.44,3,13.61,13.61,0,0,1,.58,4.19q0,6.06-3.46,9.42t-10.39,3.39a22.36,22.36,0,0,1-6.44-.82q-2.71-.81-4.61-1.59-1.06-.39-2.07-.72a5.37,5.37,0,0,0-1.49-.34,2.65,2.65,0,0,0-2,1,3.21,3.21,0,0,0-.87,2.22,3.58,3.58,0,0,0,1.88,3,16.2,16.2,0,0,0,4.57,2,34.88,34.88,0,0,0,5.68,1.1,47.89,47.89,0,0,0,5.29.34,25.74,25.74,0,0,0,8.27-1.3,18.29,18.29,0,0,0,6.59-3.8,17.78,17.78,0,0,0,4.33-6.16,20.82,20.82,0,0,0,1.59-8.37A15.75,15.75,0,0,0,282.74,51.5Z"/><path class="cls-1" d="M330.52,78.32a1.09,1.09,0,0,0-.34,0,1.42,1.42,0,0,1-.43,0q-2.59,0-2.59-3.75V52.94q0-9.42-3.85-14.38t-12.69-5a34.67,34.67,0,0,0-4.81.34,22.72,22.72,0,0,0-4.33,1,8.81,8.81,0,0,0-3.08,1.73,2.86,2.86,0,0,0-1,2.59A4.17,4.17,0,0,0,298,41a1.65,1.65,0,0,0,1.54.82,3.12,3.12,0,0,0,1.3-.24,9.94,9.94,0,0,0,1-.53,13.43,13.43,0,0,1,3.39-1.59,15.49,15.49,0,0,1,4.42-.53q11.25,0,11.25,11.44v.87a4.58,4.58,0,0,1-5.42,4.49h-.05a29.59,29.59,0,0,0-5.2-.48q-16.73,0-16.73,14v.39q0,6.35,3.56,10.24t10.84,3.9a18.68,18.68,0,0,0,10.35-3.07,4.57,4.57,0,0,1,5.72.48,10.66,10.66,0,0,0,.91.81A6.42,6.42,0,0,0,329,83.5a5.51,5.51,0,0,0,2.5-.58,2.07,2.07,0,0,0,1.15-2,3.22,3.22,0,0,0-.53-1.78A1.77,1.77,0,0,0,330.52,78.32Zm-9.62-6.84a4.55,4.55,0,0,1-1.9,3.71,18.81,18.81,0,0,1-3.69,2.07,16,16,0,0,1-6.15,1.15q-5.48,0-7.5-2.45a9.44,9.44,0,0,1-2-6.21v-.39a15.07,15.07,0,0,1,.39-3.46A6.31,6.31,0,0,1,301.56,63a7.8,7.8,0,0,1,3.17-2,16.42,16.42,0,0,1,5.42-.72,33.88,33.88,0,0,1,5,.43q1,.16,2.08.39a4.6,4.6,0,0,1,3.64,4.48v5.85Z"/><path class="cls-2" d="M58.67,117.34a58.67,58.67,0,1,1,58.67-58.67A58.67,58.67,0,0,1,58.67,117.34ZM58.67,6a52.71,52.71,0,1,0,52.71,52.72A52.71,52.71,0,0,0,58.67,6Z"/><circle class="cls-2" cx="58.85" cy="58.21" r="9.18" transform="translate(-23.93 58.66) rotate(-45)"/><path class="cls-2" d="M90.38,83a3.58,3.58,0,0,1-2.53-6.1A26.17,26.17,0,0,0,95.16,58.4a26.17,26.17,0,0,0-7.31-18.48,3.58,3.58,0,0,1,5.06-5.06,33.37,33.37,0,0,1,9.41,23.54,33.36,33.36,0,0,1-9.41,23.54A3.56,3.56,0,0,1,90.38,83Z"/><path class="cls-2" d="M58.39,102.31a33.24,33.24,0,0,1-23.54-9.4,3.58,3.58,0,1,1,5.06-5.06h0c9.67,9.67,27.28,9.67,37,0a3.58,3.58,0,1,1,5.06,5.06A33.24,33.24,0,0,1,58.39,102.31Z"/><path class="cls-2" d="M80,30.54a3.56,3.56,0,0,1-2.49-1c-9.67-9.67-27.28-9.67-36.94,0a3.58,3.58,0,1,1-5.06-5.06C48,11.9,70,11.9,82.52,24.44A3.58,3.58,0,0,1,80,30.54Z"/><path class="cls-2" d="M27,83.53a3.56,3.56,0,0,1-2.53-1.05A33.37,33.37,0,0,1,15,58.94a33.34,33.34,0,0,1,9.41-23.52,3.58,3.58,0,0,1,5.06,5.06h0a26.14,26.14,0,0,0-7.31,18.47A26.17,26.17,0,0,0,29.5,77.43,3.58,3.58,0,0,1,27,83.53Z"/><path class="cls-2" d="M63.52,83.31a1.88,1.88,0,0,1,1.36-3.21c8.18,0,15.64-7.45,15.64-15.64a1.88,1.88,0,0,1,3.76,0c0,10.34-9.06,19.4-19.4,19.4A1.88,1.88,0,0,1,63.52,83.31Z"/><path class="cls-2" d="M38.92,78A19.36,19.36,0,0,1,33.1,64.48a1.88,1.88,0,1,1,3.76,0c0,8.18,7.45,15.64,15.64,15.64a1.88,1.88,0,0,1,.23,3.76h-.23A19.36,19.36,0,0,1,38.92,78Z"/><path class="cls-2" d="M81,54.21a1.88,1.88,0,0,1-.55-1.36c0-8.18-7.45-15.64-15.64-15.64a1.88,1.88,0,1,1-.23-3.76h.23A19.91,19.91,0,0,1,84.23,52.89,1.88,1.88,0,0,1,81,54.21Z"/><path class="cls-2" d="M33.64,54.21a1.88,1.88,0,0,1-.55-1.36c0-10.34,9.06-19.4,19.4-19.4a1.88,1.88,0,0,1,0,3.76c-8.18,0-15.64,7.45-15.64,15.64a1.88,1.88,0,0,1-3.22,1.36Z"/><path class="cls-2" d="M62.77,73.88A1.09,1.09,0,0,1,63.54,72a9,9,0,0,0,8.65-8.65,1.09,1.09,0,1,1,2.18,0A11.12,11.12,0,0,1,63.54,74.21,1.08,1.08,0,0,1,62.77,73.88Z"/><path class="cls-2" d="M46.23,70.95A10.84,10.84,0,0,1,43,63.37a1.09,1.09,0,0,1,2.18,0A8.94,8.94,0,0,0,53.81,72a1.09,1.09,0,1,1,0,2.18A10.84,10.84,0,0,1,46.23,70.95Z"/><path class="cls-2" d="M62.77,45a1.09,1.09,0,0,1,.77-1.86A11.12,11.12,0,0,1,74.38,54a1.09,1.09,0,0,1-2.18,0h0a8.94,8.94,0,0,0-8.66-8.66A1.08,1.08,0,0,1,62.77,45Z"/><path class="cls-2" d="M43.29,54.75A1.08,1.08,0,0,1,43,54,11.12,11.12,0,0,1,53.81,43.14a1.09,1.09,0,0,1,0,2.18A9,9,0,0,0,45.15,54a1.09,1.09,0,0,1-1.86.77Z"/></g></g></svg>